<svg xmlns="http://www.w3.org/2000/svg" xmlns:xlink="http://www.w3.org/1999/xlink" width="500" zoomAndPan="magnify" viewBox="0 0 375 374.999991" height="500" preserveAspectRatio="xMidYMid meet" version="1.0"><defs><clipPath id="a92db0bb88"><path d="M 187.5 0 C 83.945312 0 0 83.945312 0 187.5 C 0 291.054688 83.945312 375 187.5 375 C 291.054688 375 375 291.054688 375 187.5 C 375 83.945312 291.054688 0 187.5 0 Z M 187.5 0 " clip-rule="nonzero"/></clipPath><clipPath id="ad8ba8c951"><path d="M 112.5 92.117188 L 262.929688 92.117188 L 262.929688 204.390625 L 112.5 204.390625 Z M 112.5 92.117188 " clip-rule="nonzero"/></clipPath><clipPath id="9c47a444b2"><path d="M 162.527344 96.027344 C 170.191406 93.664062 178.960938 92.117188 187.539062 92.117188 C 196.121094 92.117188 204.378906 93.445312 211.988281 95.804688 C 212.148438 95.878906 212.3125 95.878906 212.472656 95.953125 C 241.046875 105.398438 262.09375 130.335938 262.5 158.277344 L 262.5 204.390625 L 112.5 204.390625 L 112.5 158.308594 C 112.90625 130.191406 133.628906 105.25 162.527344 96.027344 Z M 162.527344 96.027344 " clip-rule="nonzero"/></clipPath><clipPath id="4a0272ccd1"><path d="M 131.25 215.382812 L 243.75 215.382812 L 243.75 234.132812 L 131.25 234.132812 Z M 131.25 215.382812 " clip-rule="nonzero"/></clipPath><clipPath id="f338bc6ddc"><path d="M 150 245.382812 L 225 245.382812 L 225 260.382812 L 150 260.382812 Z M 150 245.382812 " clip-rule="nonzero"/></clipPath><clipPath id="7d393a3170"><path d="M 168.75 271.632812 L 206.25 271.632812 L 206.25 282.882812 L 168.75 282.882812 Z M 168.75 271.632812 " clip-rule="nonzero"/></clipPath></defs><g clip-path="url(#a92db0bb88)"><rect x="-37.5" width="450" fill="#000000" y="-37.499999" height="449.999989" fill-opacity="1"/></g><g clip-path="url(#ad8ba8c951)"><g clip-path="url(#9c47a444b2)"><path fill="#ffffff" d="M 112.5 92.117188 L 262.492188 92.117188 L 262.492188 204.390625 L 112.5 204.390625 Z M 112.5 92.117188 " fill-opacity="1" fill-rule="nonzero"/></g></g><g clip-path="url(#4a0272ccd1)"><path fill="#ffffff" d="M 131.25 215.382812 L 243.75 215.382812 L 243.75 234.132812 L 131.25 234.132812 Z M 131.25 215.382812 " fill-opacity="1" fill-rule="nonzero"/></g><g clip-path="url(#f338bc6ddc)"><path fill="#ffffff" d="M 150 245.382812 L 225 245.382812 L 225 260.382812 L 150 260.382812 Z M 150 245.382812 " fill-opacity="1" fill-rule="nonzero"/></g><g clip-path="url(#7d393a3170)"><path fill="#ffffff" d="M 168.75 271.632812 L 206.234375 271.632812 L 206.234375 282.882812 L 168.75 282.882812 Z M 168.75 271.632812 " fill-opacity="1" fill-rule="nonzero"/></g></svg>